<svg id="Layer_1" data-name="Layer 1" xmlns="http://www.w3.org/2000/svg" viewBox="0 0 1200 1200"><path d="M115.21,572.38v-7h25.31v7h-8.79v45.25h8.79v7H115.21v-7H124V572.38Zm23.49,0v-7h7.57q8.59,0,13.51,3.86t4.9,11.4q0,7.49-5,11t-14.57,3.47H129.52v-3.71h15.77a13.21,13.21,0,0,0,6.5-1.38,8.44,8.44,0,0,0,3.55-3.63,10.86,10.86,0,0,0,1.1-4.89,7.78,7.78,0,0,0-3.21-6.82,14.58,14.58,0,0,0-8.49-2.24ZM138,617.63h7.69q5.88,0,9.42-2.5a8.42,8.42,0,0,0,3.55-7.35,9.31,9.31,0,0,0-.77-3.84,8,8,0,0,0-2.38-3.06,11.45,11.45,0,0,0-4.16-2,23.2,23.2,0,0,0-6.13-.71H129.52v-4.85h15.69a47.27,47.27,0,0,1,9.24.81,19.81,19.81,0,0,1,6.8,2.56,11.48,11.48,0,0,1,4.2,4.65,15.69,15.69,0,0,1,1.44,7q0,7.73-4.81,12t-13.28,4.28H138Zm13-24.56h3.79V595H151Z"/><path d="M230.8,617.63h5.28v7H210.85v-7h11.86l-18.53-46.08,4.7,3.19h-7.42l4.7-3.19-18.53,46.08h11.86v7H174.66v-7h5.28L201,565.36h8.67Zm-9.51-18v6.7H189.68v-6.7Z"/><path d="M245.42,572.38v-7h25.31v7h-8.79v45.25h8.79v7H245.42v-7h8.79V572.38Zm20.93,0v-7H277q10.17,0,15.29,4.12T297.42,581a16.72,16.72,0,0,1-1.34,6.74,14.07,14.07,0,0,1-3.94,5.23,16,16,0,0,1-6.39,3.09v1.3l-9.66.83H260.87v-6.78h15.77a19.84,19.84,0,0,0,7.08-1.12,9,9,0,0,0,4.36-3.3,9.52,9.52,0,0,0,1.45-5.44q0-4.77-3.49-6.95t-9.32-2.19Zm13.37,21a13.41,13.41,0,0,1,4.73,1.89,7.48,7.48,0,0,1,3.19,3.91l6.78,18.48h6.27v7H288.75l-7.34-21a9.3,9.3,0,0,0-2.56-4.24,7,7,0,0,0-4.45-1.2h-3Z"/><path d="M339.76,625.6a31.29,31.29,0,0,1-12-2.27,27.87,27.87,0,0,1-9.51-6.39,28.62,28.62,0,0,1-6.18-9.75,33.8,33.8,0,0,1-2.19-12.34A33.34,33.34,0,0,1,312,582.59a27.65,27.65,0,0,1,15.57-15.87,31.3,31.3,0,0,1,11.94-2.23,25.07,25.07,0,0,1,10.55,2,17.11,17.11,0,0,1,7.05,5.88,22.42,22.42,0,0,1,3.57,9.28h2.37L361,588.62a20.74,20.74,0,0,0-7.41-12.08,21.65,21.65,0,0,0-13.84-4.48,21.9,21.9,0,0,0-11.32,2.88,20,20,0,0,0-7.62,8,24.87,24.87,0,0,0-2.74,11.89,26.88,26.88,0,0,0,1.57,9.38,21.66,21.66,0,0,0,4.46,7.35,19.45,19.45,0,0,0,6.86,4.77,23.79,23.79,0,0,0,18.53-.41,19.59,19.59,0,0,0,7.23-5.91,22.41,22.41,0,0,0,4-8.95l7.93,1.65a29.19,29.19,0,0,1-5.46,12.07,27.47,27.47,0,0,1-10,8A31,31,0,0,1,339.76,625.6Zm21.25-37V565.36h7.69v23.26Z"/><path d="M380.32,572.38v-7h25.31v7h-8.79v45.25h8.79v7H380.32v-7h8.8V572.38Zm20.94,0v-7H411.9q10.17,0,15.3,4.12T432.32,581a16.56,16.56,0,0,1-1.34,6.74,14,14,0,0,1-3.94,5.23,15.89,15.89,0,0,1-6.39,3.09v1.3l-9.66.83H395.78v-6.78h15.77a19.82,19.82,0,0,0,7.07-1.12A9,9,0,0,0,423,587a9.52,9.52,0,0,0,1.46-5.44q0-4.77-3.49-6.95t-9.32-2.19Zm13.36,21a13.41,13.41,0,0,1,4.73,1.89,7.5,7.5,0,0,1,3.2,3.91l6.78,18.48h6.26v7H423.65l-7.33-21a9.31,9.31,0,0,0-2.57-4.24,7,7,0,0,0-4.45-1.2h-3Z"/><path d="M475.45,625.6A33.73,33.73,0,0,1,463,623.37a28,28,0,0,1-16-16.1,33.83,33.83,0,0,1-2.21-12.42A32.73,32.73,0,0,1,447,582.57a28.11,28.11,0,0,1,6.31-9.64,28.47,28.47,0,0,1,9.69-6.29,35.87,35.87,0,0,1,24.9,0,28.68,28.68,0,0,1,9.74,6.29,28,28,0,0,1,6.32,9.64,32.73,32.73,0,0,1,2.23,12.28,33.43,33.43,0,0,1-2.23,12.42,28.06,28.06,0,0,1-16,16.1A33.59,33.59,0,0,1,475.45,625.6Zm0-7.57a23,23,0,0,0,11.75-3,20.71,20.71,0,0,0,7.92-8.18,24.71,24.71,0,0,0,2.84-12,24.36,24.36,0,0,0-2.84-12,20.3,20.3,0,0,0-7.9-8,25.49,25.49,0,0,0-23.54,0,20.55,20.55,0,0,0-7.92,8,24.25,24.25,0,0,0-2.86,12,24.61,24.61,0,0,0,2.86,12,21,21,0,0,0,7.92,8.18A22.94,22.94,0,0,0,475.45,618Z"/><path d="M567.46,565.36v17.78h-7.72V572.38H532.06v45.25h11v7H515.54v-7h8.8V572.38h-8.8v-7Zm-15.21,26v6.78H528.71v-6.78Z"/><path d="M634.13,565.36v19.71H626.4V572.38H609.57v45.25h8.79v7H593.05v-7h8.79V572.38H585.05v12.69h-7.73V565.36Z"/><path d="M769.73,568.67v-3.31h24.68v3.31H783.72v52.67h32.13v3.31H769.73v-3.31h10.44V568.67ZM818,605.06v19.59h-3.59V605.06Z"/><path d="M878.3,608.61h3.54v16h-55v-3.31h10.45V568.67H826.81v-3.31h54.33v16h-3.55V568.67H840.81v52.67H878.3Zm-12.15-15.5v3.24H839.23v-3.24Z"/><path d="M922.76,625.36a29.9,29.9,0,0,1-11.7-2.25,27.5,27.5,0,0,1-9.31-6.32,28.92,28.92,0,0,1-6.13-9.66,35.7,35.7,0,0,1-.06-24.46,27.79,27.79,0,0,1,6.07-9.54,27.48,27.48,0,0,1,9.43-6.25,32,32,0,0,1,12.18-2.23A28,28,0,0,1,935,566.94a21.35,21.35,0,0,1,8.14,6.36,24.39,24.39,0,0,1,4.41,9.52h1.22l-1,5.8q-1.93-9.86-8.36-15.12t-16.12-5.26a26.94,26.94,0,0,0-13.7,3.37,23.46,23.46,0,0,0-9.09,9.36,28.85,28.85,0,0,0-3.23,13.88,29.74,29.74,0,0,0,1.91,10.88,25.92,25.92,0,0,0,5.34,8.53,23.46,23.46,0,0,0,8.14,5.56A26.7,26.7,0,0,0,923,621.77a25.34,25.34,0,0,0,12-2.8,24.08,24.08,0,0,0,8.81-7.86,28.14,28.14,0,0,0,4.49-11.93l2.76.75a31.31,31.31,0,0,1-5,13.35,27.19,27.19,0,0,1-9.85,8.89A28,28,0,0,1,922.76,625.36Zm5.37-25.47v-3.35h31.5v3.35Zm19.63-11.27V565.36h3.55v23.26Zm1.61,36L948.11,606v-9.19h3.63v27.87Z"/><path d="M1022,621.34h6.31v3.31H1003v-3.31h15.18l-22.39-53.26,2.36,1.66h-3.66l2.32-1.66-22.43,53.26h15.22v3.31H964.47v-3.31h6.27l23.58-56h4.1Zm-9.42-20v3.24H980.32v-3.24Z"/><path d="M1036.54,568.67v-3.31h24.68v3.31h-10.69v52.67h32.13v3.31h-46.12v-3.31H1047V568.67Zm48.25,36.39v19.59h-3.58V605.06Z"/><path d="M755.83,600l-28.07-28,1.64-4.75H723l-20.71-20.71L681.6,567.2h-6.38l1.63,4.75-28.07,28,53.53,53.51Zm-71.43-9.46a.95.95,0,0,1,0-1.89h35.81a.95.95,0,1,1,0,1.89Zm7.32,3.48v34.66l-2.32-2.32V594Zm3.48,0h2.54V634.7l-2.54-2.55Zm6,0h2.17v44.15l-1.08,1.09-1.09-1.09Zm5.65,0h2.55v38.14l-2.55,2.54Zm6,0h2.31v32.34l-2.31,2.32Zm5.79,0h1.52a4.43,4.43,0,1,0,0-8.85H684.4a4.43,4.43,0,0,0,0,8.85h1.52v28.86l-22.63-22.62,18.43-18.42h41.17l18.43,18.42-22.63,22.62Zm-.7-26.93a15.75,15.75,0,0,1-9.47-4.56l-6.21-6.21-6,6-.25.24a15.75,15.75,0,0,1-9.46,4.56l15.68-15.68Zm-33.16,3.59A19.29,19.29,0,0,0,698.55,565l.25-.25,3.51-3.51,3.5,3.51h0l.25.25a19.31,19.31,0,0,0,13.72,5.68h4.74l-2.64,7.68H682.73l-2.64-7.68Zm-6.72,4.93,1.26,3.66-21,21,43.94,43.92,43.93-43.92-21-21,1.26-3.66L750.91,600l-48.6,48.59L653.71,600Z"/></svg>